<?xml version="1.0" encoding="UTF-8"?>
<svg id="Capa_1" xmlns="http://www.w3.org/2000/svg" version="1.1" viewBox="0 0 1080 242.16">
  <!-- Generator: Adobe Illustrator 30.4.0, SVG Export Plug-In . SVG Version: 2.1.4 Build 226)  -->
  <defs>
    <style>
      .st0 {
        fill: #dfdfdf;
      }

      .st1 {
        fill: #bebebe;
      }
    </style>
  </defs>
  <g>
    <path class="st1" d="M237.82,104.84v-19.46h77.53v19.46h-77.53ZM315.35,196.58c-7.35,1.37-14.54,1.97-21.57,1.8-7.04-.17-13.33-1.48-18.89-3.91s-9.78-6.3-12.66-11.58c-2.54-4.8-3.88-9.71-4.02-14.72-.14-5.01-.21-10.67-.21-16.99V54.5h24.71v95.23c0,4.46.05,8.38.15,11.74.1,3.36.81,6.11,2.11,8.24,2.47,4.12,6.42,6.42,11.84,6.9,5.42.48,11.6.21,18.53-.82v20.8Z"/>
    <path class="st1" d="M318.74,196.58v-111.19h21.93v27.08l-2.68-3.5c1.37-3.71,3.21-7.09,5.51-10.14,2.3-3.05,5.06-5.58,8.29-7.57,2.74-1.85,5.78-3.31,9.11-4.38,3.33-1.06,6.74-1.71,10.24-1.96,3.5-.24,6.9-.08,10.19.46v23.17c-3.29-.96-7.09-1.27-11.38-.93-4.29.34-8.15,1.54-11.58,3.6-3.43,1.85-6.23,4.22-8.39,7.1s-3.76,6.16-4.79,9.83c-1.03,3.67-1.54,7.64-1.54,11.89v56.52h-24.92Z"/>
    <path class="st1" d="M428.8,199.67c-11.26,0-21.14-2.44-29.65-7.31-8.51-4.87-15.15-11.63-19.92-20.28s-7.15-18.6-7.15-29.86c0-12.15,2.33-22.7,7-31.66s11.15-15.91,19.46-20.85c8.3-4.94,17.91-7.41,28.83-7.41,11.53,0,21.33,2.69,29.39,8.08,8.06,5.39,14.05,12.99,17.97,22.8,3.91,9.82,5.39,21.38,4.43,34.7h-24.61v-9.06c-.07-12.08-2.2-20.9-6.38-26.46-4.19-5.56-10.78-8.34-19.77-8.34-10.16,0-17.71,3.14-22.65,9.42-4.94,6.28-7.41,15.46-7.41,27.54,0,11.26,2.47,19.97,7.41,26.15s12.15,9.27,21.62,9.27c6.11,0,11.38-1.36,15.8-4.07,4.43-2.71,7.84-6.64,10.24-11.79l24.5,7.41c-4.26,10.02-10.83,17.81-19.72,23.37-8.89,5.56-18.69,8.34-29.39,8.34ZM390.5,147.88v-18.74h76.5v18.74h-76.5Z"/>
    <path class="st1" d="M524.55,199.67c-13.73,0-24.88-3.09-33.46-9.27-8.58-6.18-13.8-14.86-15.65-26.05l25.33-3.91c1.3,5.49,4.19,9.82,8.65,12.97,4.46,3.16,10.09,4.74,16.88,4.74,5.97,0,10.59-1.18,13.85-3.55,3.26-2.37,4.89-5.61,4.89-9.73,0-2.54-.6-4.58-1.8-6.13-1.2-1.54-3.83-3.04-7.88-4.48s-10.26-3.26-18.63-5.46c-9.33-2.47-16.75-5.13-22.24-7.98-5.49-2.85-9.44-6.23-11.84-10.14-2.4-3.91-3.6-8.65-3.6-14.21,0-6.93,1.82-12.97,5.46-18.12,3.64-5.15,8.72-9.11,15.24-11.89,6.52-2.78,14.21-4.17,23.06-4.17s16.32,1.34,23.01,4.02c6.69,2.68,12.1,6.49,16.21,11.43,4.12,4.94,6.66,10.74,7.62,17.4l-25.33,4.53c-.62-4.74-2.76-8.48-6.44-11.22-3.67-2.74-8.56-4.29-14.67-4.63-5.83-.34-10.54.53-14.1,2.62-3.57,2.09-5.35,5.03-5.35,8.8,0,2.13.72,3.95,2.16,5.46,1.44,1.51,4.34,3.02,8.7,4.53,4.36,1.51,10.86,3.36,19.51,5.56,8.85,2.26,15.94,4.86,21.26,7.77,5.32,2.92,9.16,6.4,11.53,10.45,2.37,4.05,3.55,8.96,3.55,14.72,0,11.19-4.07,19.97-12.2,26.36-8.13,6.38-19.37,9.58-33.72,9.58Z"/>
    <path class="st1" d="M560.17,104.84v-19.46h77.53v19.46h-77.53ZM637.69,196.58c-7.34,1.37-14.53,1.97-21.57,1.8-7.04-.17-13.33-1.48-18.89-3.91s-9.78-6.3-12.66-11.58c-2.54-4.8-3.88-9.71-4.01-14.72-.14-5.01-.21-10.67-.21-16.99V54.5h24.71v95.23c0,4.46.05,8.38.15,11.74.1,3.36.81,6.11,2.11,8.24,2.47,4.12,6.42,6.42,11.84,6.9,5.42.48,11.6.21,18.53-.82v20.8Z"/>
    <path class="st1" d="M641.09,196.58v-111.19h21.93v27.08l-2.68-3.5c1.37-3.71,3.21-7.09,5.51-10.14,2.3-3.05,5.06-5.58,8.29-7.57,2.74-1.85,5.78-3.31,9.11-4.38,3.33-1.06,6.74-1.71,10.24-1.96,3.5-.24,6.9-.08,10.19.46v23.17c-3.29-.96-7.09-1.27-11.38-.93-4.29.34-8.15,1.54-11.58,3.6-3.43,1.85-6.23,4.22-8.39,7.1s-3.76,6.16-4.79,9.83-1.54,7.64-1.54,11.89v56.52h-24.92Z"/>
    <path class="st1" d="M751.15,199.67c-11.26,0-21.14-2.44-29.65-7.31-8.51-4.87-15.15-11.63-19.92-20.28-4.77-8.65-7.16-18.6-7.16-29.86,0-12.15,2.33-22.7,7-31.66,4.67-8.96,11.15-15.91,19.46-20.85,8.3-4.94,17.92-7.41,28.83-7.41,11.53,0,21.33,2.69,29.39,8.08,8.06,5.39,14.05,12.99,17.96,22.8,3.91,9.82,5.39,21.38,4.43,34.7h-24.61v-9.06c-.07-12.08-2.2-20.9-6.38-26.46-4.19-5.56-10.78-8.34-19.77-8.34-10.16,0-17.71,3.14-22.65,9.42-4.94,6.28-7.41,15.46-7.41,27.54,0,11.26,2.47,19.97,7.41,26.15s12.15,9.27,21.62,9.27c6.11,0,11.38-1.36,15.8-4.07,4.43-2.71,7.84-6.64,10.24-11.79l24.5,7.41c-4.26,10.02-10.83,17.81-19.72,23.37-8.89,5.56-18.69,8.34-29.39,8.34ZM712.85,147.88v-18.74h76.5v18.74h-76.5Z"/>
    <path class="st1" d="M846.89,199.67c-13.73,0-24.88-3.09-33.46-9.27-8.58-6.18-13.8-14.86-15.65-26.05l25.33-3.91c1.3,5.49,4.19,9.82,8.65,12.97,4.46,3.16,10.09,4.74,16.88,4.74,5.97,0,10.59-1.18,13.85-3.55,3.26-2.37,4.89-5.61,4.89-9.73,0-2.54-.6-4.58-1.8-6.13-1.2-1.54-3.83-3.04-7.88-4.48s-10.26-3.26-18.63-5.46c-9.33-2.47-16.75-5.13-22.24-7.98-5.49-2.85-9.44-6.23-11.84-10.14s-3.6-8.65-3.6-14.21c0-6.93,1.82-12.97,5.46-18.12,3.64-5.15,8.72-9.11,15.24-11.89,6.52-2.78,14.21-4.17,23.06-4.17s16.32,1.34,23.01,4.02c6.69,2.68,12.1,6.49,16.21,11.43s6.66,10.74,7.62,17.4l-25.33,4.53c-.62-4.74-2.76-8.48-6.43-11.22-3.67-2.74-8.56-4.29-14.67-4.63-5.83-.34-10.54.53-14.1,2.62-3.57,2.09-5.35,5.03-5.35,8.8,0,2.13.72,3.95,2.16,5.46,1.44,1.51,4.34,3.02,8.7,4.53,4.36,1.51,10.86,3.36,19.51,5.56,8.85,2.26,15.94,4.86,21.26,7.77,5.32,2.92,9.16,6.4,11.53,10.45,2.37,4.05,3.55,8.96,3.55,14.72,0,11.19-4.07,19.97-12.2,26.36s-19.37,9.58-33.72,9.58Z"/>
  </g>
  <g>
    <path class="st1" d="M900.38,199.25c-2.27,0-4.2-.77-5.81-2.32-1.6-1.55-2.41-3.42-2.41-5.61s.8-4.04,2.41-5.56c1.61-1.52,3.54-2.28,5.81-2.28s4.19.76,5.76,2.28c1.57,1.52,2.36,3.37,2.36,5.56s-.79,4.06-2.36,5.61c-1.57,1.55-3.49,2.32-5.76,2.32Z"/>
    <path class="st1" d="M971.38,188.39c-3.34,4.03-7.27,7.1-11.8,9.21s-9.6,3.16-15.2,3.16c-5.04,0-9.71-.91-14.02-2.74s-8.04-4.31-11.19-7.46c-3.15-3.15-5.63-6.88-7.46-11.19-1.83-4.31-2.74-8.95-2.74-13.93s.91-9.61,2.74-13.93c1.83-4.31,4.31-8.04,7.46-11.19,3.15-3.15,6.88-5.63,11.19-7.46,4.31-1.83,8.98-2.74,14.02-2.74,5.41,0,10.18.94,14.3,2.83,4.12,1.89,7.79,4.63,11,8.21l-8.97,8.69c-2.01-2.33-4.33-4.19-6.94-5.57-2.61-1.38-5.71-2.08-9.3-2.08-3.15,0-6.11.55-8.88,1.65-2.77,1.1-5.18,2.66-7.22,4.67-2.05,2.01-3.67,4.45-4.86,7.32-1.2,2.86-1.79,6.06-1.79,9.58s.6,6.72,1.79,9.58c1.19,2.87,2.82,5.3,4.86,7.32,2.04,2.01,4.45,3.57,7.22,4.67,2.77,1.1,5.73,1.65,8.88,1.65,3.78,0,7.13-.77,10.05-2.31,2.93-1.54,5.52-3.73,7.79-6.56l9.06,8.59Z"/>
    <path class="st1" d="M975.91,131.64h12.75v55.52h28.61v12.09h-41.36v-67.6Z"/>
  </g>
  <g>
    <path class="st1" d="M898.59,89.36c-.61,0-1.18-.12-1.72-.35s-1.01-.57-1.41-1c-.4-.43-.68-.95-.86-1.54l1.97-.53c.14.48.4.86.77,1.12s.79.39,1.24.38c.4,0,.76-.09,1.07-.28s.56-.44.74-.75c.18-.32.27-.67.27-1.07,0-.6-.19-1.11-.58-1.51-.39-.41-.89-.61-1.5-.61-.19,0-.37.03-.54.08-.18.05-.35.12-.51.21l-.93-1.6,4.08-3.49.18.49h-5.78v-1.92h7.45v1.92l-3.28,3.16-.02-.6c.74.05,1.37.26,1.89.62.52.36.92.82,1.2,1.39s.42,1.19.42,1.87c0,.77-.19,1.45-.56,2.06s-.88,1.09-1.5,1.44c-.63.35-1.32.53-2.08.53Z"/>
    <path class="st1" d="M906.72,89.36c-.61,0-1.18-.12-1.72-.35s-1.01-.57-1.41-1c-.4-.43-.68-.95-.86-1.54l1.97-.53c.14.48.4.86.77,1.12s.79.39,1.24.38c.4,0,.76-.09,1.07-.28s.56-.44.74-.75c.18-.32.27-.67.27-1.07,0-.6-.19-1.11-.58-1.51-.39-.41-.89-.61-1.5-.61-.19,0-.37.03-.54.08-.18.05-.35.12-.51.21l-.93-1.6,4.08-3.49.18.49h-5.78v-1.92h7.45v1.92l-3.28,3.16-.02-.6c.74.05,1.37.26,1.89.62.52.36.92.82,1.2,1.39s.42,1.19.42,1.87c0,.77-.19,1.45-.56,2.06s-.88,1.09-1.5,1.44c-.63.35-1.32.53-2.08.53Z"/>
  </g>
  <g>
    <path class="st0" d="M140.34,87.63h58.6c-.2-37.59-30.63-68.01-68.22-68.21h0s-68.59,0-68.59,0c.18,34.27,25.5,62.59,58.46,67.47h-58.46c.18,34.27,25.5,62.59,58.46,67.47h-58.46c.2,37.65,30.73,68.12,68.41,68.22v.19c37.4-.2,67.7-30.33,68.2-67.66h.06c-.18-34.27-25.5-62.59-58.46-67.47Z"/>
    <path class="st1" d="M159.21,87.63h58.6c-.2-37.59-30.63-68.01-68.22-68.21h0s-68.59,0-68.59,0c.18,34.27,25.5,62.59,58.46,67.47h-58.46c.18,34.27,25.5,62.59,58.46,67.47h-58.46c.2,37.65,30.73,68.12,68.41,68.22v.19c37.4-.2,67.7-30.33,68.2-67.66h.06c-.18-34.27-25.5-62.59-58.46-67.47Z"/>
  </g>
  <path class="st1" d="M903.11,96.86c-7.66,0-13.9-6.23-13.9-13.9s6.23-13.9,13.9-13.9,13.9,6.23,13.9,13.9-6.23,13.9-13.9,13.9ZM903.11,71.07c-6.56,0-11.9,5.34-11.9,11.9s5.34,11.9,11.9,11.9,11.9-5.34,11.9-11.9-5.34-11.9-11.9-11.9Z"/>
</svg>