<?xml version="1.0" encoding="UTF-8"?>
<svg id="Capa_1" xmlns="http://www.w3.org/2000/svg" version="1.1" viewBox="0 0 693.58 126.91">
  <!-- Generator: Adobe Illustrator 30.1.0, SVG Export Plug-In . SVG Version: 2.1.1 Build 136)  -->
  <defs>
    <style>
      .st0 {
        fill: #e9e9e9;
      }

      .st1 {
        fill: #989898;
      }
    </style>
  </defs>
  <path class="st0" d="M249.7,53.53h26.2c-.09-16.81-13.7-30.41-30.5-30.5h0s-30.67,0-30.67,0c.08,15.32,11.4,27.99,26.14,30.17h-26.14c.08,15.33,11.4,27.99,26.14,30.17h-26.14c.09,16.83,13.74,30.46,30.59,30.5v.08c16.72-.09,30.27-13.56,30.49-30.25h.03c-.08-15.33-11.4-27.99-26.14-30.17Z"/>
  <g>
    <path class="st1" d="M317.18,99.33c-3.85,0-7.04-1.19-9.57-3.56-2.53-2.37-3.83-5.68-3.9-9.91v-26.36h-8.27v-8.08h8.27v-14.43h8.85v14.43h11.55v8.08h-11.55v23.48c0,3.14.61,5.28,1.83,6.4,1.22,1.12,2.6,1.68,4.14,1.68.7,0,1.4-.08,2.07-.24.67-.16,1.3-.37,1.88-.63l2.79,7.89c-2.31.83-5,1.25-8.08,1.25Z"/>
    <path class="st1" d="M337.57,98.56h-8.85v-47.14h8.47v7.7h.38c.9-2.5,2.74-4.63,5.53-6.4,2.79-1.76,5.53-2.65,8.23-2.65s4.75.38,6.54,1.15l-2.69,8.56c-1.09-.45-2.82-.67-5.2-.67-3.34,0-6.24,1.35-8.71,4.04-2.47,2.69-3.7,5.84-3.7,9.43v25.98Z"/>
    <path class="st1" d="M378.08,100.1c-6.93,0-12.64-2.37-17.13-7.12-4.49-4.75-6.73-10.74-6.73-17.99s2.18-13.16,6.54-17.94c4.36-4.78,9.94-7.17,16.74-7.17s12.56,2.26,16.69,6.78c4.14,4.52,6.21,10.86,6.21,19l-.1.96h-37.04c.13,4.62,1.67,8.34,4.62,11.16,2.95,2.82,6.48,4.23,10.58,4.23,5.64,0,10.07-2.82,13.28-8.47l7.89,3.85c-2.12,3.98-5.05,7.09-8.8,9.33-3.75,2.24-8,3.37-12.75,3.37ZM363.93,69.31h27.04c-.26-3.27-1.59-5.98-3.99-8.13-2.41-2.15-5.63-3.22-9.67-3.22-3.34,0-6.21,1.03-8.61,3.08-2.41,2.05-3.99,4.81-4.76,8.27Z"/>
    <path class="st1" d="M441.19,85.47c0,4.11-1.8,7.57-5.39,10.39-3.59,2.82-8.11,4.23-13.57,4.23-4.75,0-8.92-1.24-12.51-3.7-3.59-2.47-6.16-5.72-7.7-9.77l7.89-3.37c1.15,2.82,2.84,5.02,5.05,6.59,2.21,1.57,4.63,2.36,7.26,2.36,2.82,0,5.18-.61,7.07-1.83,1.89-1.22,2.84-2.66,2.84-4.33,0-3.01-2.31-5.23-6.93-6.64l-8.08-2.02c-9.17-2.31-13.76-6.73-13.76-13.28,0-4.3,1.75-7.75,5.24-10.34,3.49-2.6,7.97-3.9,13.42-3.9,4.17,0,7.94,1,11.3,2.98,3.37,1.99,5.72,4.65,7.07,7.99l-7.89,3.27c-.9-1.99-2.36-3.54-4.38-4.67-2.02-1.12-4.28-1.68-6.78-1.68-2.31,0-4.38.58-6.21,1.73-1.83,1.15-2.74,2.57-2.74,4.23,0,2.69,2.53,4.62,7.6,5.77l7.12,1.83c9.36,2.31,14.05,7.02,14.05,14.14Z"/>
    <path class="st1" d="M463.22,99.33c-3.85,0-7.04-1.19-9.57-3.56-2.54-2.37-3.83-5.68-3.9-9.91v-26.36h-8.27v-8.08h8.27v-14.43h8.85v14.43h11.55v8.08h-11.55v23.48c0,3.14.61,5.28,1.83,6.4,1.22,1.12,2.6,1.68,4.14,1.68.7,0,1.39-.08,2.07-.24.67-.16,1.3-.37,1.88-.63l2.79,7.89c-2.31.83-5,1.25-8.08,1.25Z"/>
    <path class="st1" d="M483.62,98.56h-8.85v-47.14h8.47v7.7h.38c.9-2.5,2.74-4.63,5.53-6.4,2.79-1.76,5.53-2.65,8.23-2.65s4.75.38,6.54,1.15l-2.69,8.56c-1.09-.45-2.82-.67-5.2-.67-3.34,0-6.24,1.35-8.71,4.04-2.47,2.69-3.7,5.84-3.7,9.43v25.98Z"/>
    <path class="st1" d="M524.13,100.1c-6.93,0-12.64-2.37-17.13-7.12-4.49-4.75-6.73-10.74-6.73-17.99s2.18-13.16,6.54-17.94c4.36-4.78,9.94-7.17,16.74-7.17s12.56,2.26,16.69,6.78c4.14,4.52,6.21,10.86,6.21,19l-.1.96h-37.04c.13,4.62,1.67,8.34,4.62,11.16,2.95,2.82,6.48,4.23,10.58,4.23,5.64,0,10.07-2.82,13.28-8.47l7.89,3.85c-2.12,3.98-5.05,7.09-8.8,9.33-3.75,2.24-8,3.37-12.75,3.37ZM509.98,69.31h27.04c-.26-3.27-1.59-5.98-3.99-8.13-2.4-2.15-5.63-3.22-9.67-3.22-3.34,0-6.21,1.03-8.61,3.08-2.4,2.05-3.99,4.81-4.76,8.27Z"/>
    <path class="st1" d="M587.24,85.47c0,4.11-1.8,7.57-5.39,10.39-3.59,2.82-8.11,4.23-13.57,4.23-4.75,0-8.92-1.24-12.51-3.7-3.59-2.47-6.16-5.72-7.7-9.77l7.89-3.37c1.15,2.82,2.84,5.02,5.05,6.59,2.21,1.57,4.63,2.36,7.26,2.36,2.82,0,5.18-.61,7.07-1.83,1.89-1.22,2.84-2.66,2.84-4.33,0-3.01-2.31-5.23-6.93-6.64l-8.08-2.02c-9.17-2.31-13.76-6.73-13.76-13.28,0-4.3,1.75-7.75,5.24-10.34,3.49-2.6,7.97-3.9,13.42-3.9,4.17,0,7.94,1,11.3,2.98,3.37,1.99,5.72,4.65,7.07,7.99l-7.89,3.27c-.9-1.99-2.36-3.54-4.38-4.67-2.02-1.12-4.28-1.68-6.78-1.68-2.31,0-4.38.58-6.21,1.73-1.83,1.15-2.74,2.57-2.74,4.23,0,2.69,2.53,4.62,7.6,5.77l7.12,1.83c9.36,2.31,14.05,7.02,14.05,14.14Z"/>
    <path class="st1" d="M603.4,92.59c0,1.8-.63,3.34-1.88,4.62-1.25,1.28-2.81,1.92-4.67,1.92s-3.34-.64-4.62-1.92c-1.28-1.28-1.92-2.82-1.92-4.62s.64-3.42,1.92-4.67c1.28-1.25,2.82-1.88,4.62-1.88s3.41.63,4.67,1.88c1.25,1.25,1.88,2.81,1.88,4.67Z"/>
    <path class="st1" d="M631.11,100.1c-6.99,0-12.8-2.37-17.41-7.12-4.56-4.87-6.83-10.87-6.83-17.99s2.28-13.24,6.83-17.99c4.62-4.75,10.42-7.12,17.41-7.12,4.81,0,9.01,1.2,12.6,3.61,3.59,2.41,6.29,5.72,8.08,9.96l-8.08,3.37c-2.5-5.9-6.9-8.85-13.18-8.85-4.04,0-7.54,1.64-10.49,4.91-2.89,3.27-4.33,7.31-4.33,12.12s1.44,8.85,4.33,12.12c2.95,3.27,6.45,4.91,10.49,4.91,6.48,0,11.03-2.95,13.66-8.85l7.89,3.37c-1.73,4.23-4.44,7.55-8.13,9.96-3.69,2.41-7.97,3.61-12.84,3.61Z"/>
    <path class="st1" d="M664.78,29.67v68.89h-8.85V29.67h8.85Z"/>
  </g>
  <path class="st1" d="M258.14,53.53h26.2c-.09-16.81-13.7-30.41-30.5-30.5h0s-30.67,0-30.67,0c.08,15.32,11.4,27.99,26.14,30.17h-26.14c.08,15.33,11.4,27.99,26.14,30.17h-26.14c.09,16.83,13.74,30.46,30.59,30.5v.08c16.72-.09,30.27-13.56,30.49-30.25h.03c-.08-15.33-11.4-27.99-26.14-30.17Z"/>
  <g>
    <path class="st1" d="M24.75,67.62v10.25h-3.25v-25.32h8.63c2.19,0,4.05.73,5.59,2.19,1.56,1.46,2.33,3.24,2.33,5.34s-.78,3.94-2.33,5.37c-1.51,1.44-3.37,2.16-5.59,2.16h-5.37ZM24.75,55.67v8.84h5.45c1.3,0,2.37-.44,3.22-1.31.87-.87,1.31-1.91,1.31-3.11s-.44-2.2-1.31-3.08c-.85-.9-1.92-1.34-3.22-1.34h-5.45Z"/>
    <path class="st1" d="M37.94,69.21c0-2.66.84-4.87,2.51-6.61,1.7-1.74,3.83-2.62,6.4-2.62s4.69.87,6.36,2.62c1.7,1.74,2.55,3.95,2.55,6.61s-.85,4.89-2.55,6.61c-1.67,1.74-3.8,2.62-6.36,2.62s-4.7-.87-6.4-2.62c-1.67-1.74-2.51-3.95-2.51-6.61ZM41.19,69.21c0,1.86.54,3.37,1.63,4.53,1.08,1.15,2.43,1.73,4.03,1.73s2.95-.58,4.03-1.73c1.08-1.15,1.63-2.66,1.63-4.53s-.54-3.34-1.63-4.49c-1.11-1.18-2.45-1.77-4.03-1.77s-2.92.59-4.03,1.77c-1.08,1.16-1.63,2.65-1.63,4.49Z"/>
    <path class="st1" d="M82.21,60.55l-5.59,17.32h-3.32l-4.31-13.29-4.28,13.29h-3.29l-5.59-17.32h3.39l3.85,13.08h.04l4.28-13.08h3.36l4.28,13.08h.04l3.82-13.08h3.32Z"/>
    <path class="st1" d="M91.05,78.44c-2.55,0-4.64-.87-6.29-2.62-1.65-1.74-2.47-3.95-2.47-6.61s.8-4.84,2.4-6.59c1.6-1.76,3.65-2.63,6.15-2.63s4.61.83,6.13,2.49c1.52,1.66,2.28,3.99,2.28,6.98l-.04.35h-13.61c.05,1.7.61,3.06,1.7,4.1,1.08,1.04,2.38,1.56,3.89,1.56,2.07,0,3.7-1.04,4.88-3.11l2.9,1.41c-.78,1.46-1.86,2.61-3.24,3.43-1.38.82-2.94,1.24-4.68,1.24ZM85.85,67.12h9.94c-.09-1.2-.58-2.2-1.47-2.99-.88-.79-2.07-1.18-3.55-1.18-1.23,0-2.28.38-3.16,1.13-.88.75-1.47,1.77-1.75,3.04Z"/>
    <path class="st1" d="M104.76,77.87h-3.25v-17.32h3.11v2.83h.14c.33-.92,1.01-1.7,2.03-2.35,1.03-.65,2.03-.97,3.02-.97s1.74.14,2.4.42l-.99,3.15c-.4-.16-1.04-.25-1.91-.25-1.23,0-2.29.5-3.2,1.49-.91.99-1.36,2.15-1.36,3.46v9.55Z"/>
    <path class="st1" d="M120.36,78.44c-2.55,0-4.64-.87-6.29-2.62-1.65-1.74-2.47-3.95-2.47-6.61s.8-4.84,2.4-6.59c1.6-1.76,3.65-2.63,6.15-2.63s4.61.83,6.13,2.49c1.52,1.66,2.28,3.99,2.28,6.98l-.04.35h-13.61c.05,1.7.61,3.06,1.7,4.1,1.08,1.04,2.38,1.56,3.89,1.56,2.07,0,3.7-1.04,4.88-3.11l2.9,1.41c-.78,1.46-1.86,2.61-3.24,3.43-1.38.82-2.94,1.24-4.68,1.24ZM115.16,67.12h9.94c-.09-1.2-.58-2.2-1.47-2.99-.88-.79-2.07-1.18-3.55-1.18-1.23,0-2.28.38-3.16,1.13-.88.75-1.47,1.77-1.75,3.04Z"/>
    <path class="st1" d="M138.25,78.44c-2.26,0-4.21-.9-5.83-2.69-1.6-1.82-2.4-4-2.4-6.54s.8-4.73,2.4-6.54c1.63-1.79,3.57-2.69,5.83-2.69,1.27,0,2.43.27,3.48.81,1.05.54,1.86,1.26,2.42,2.16h.14l-.14-2.4v-7.99h3.25v25.32h-3.11v-2.4h-.14c-.57.9-1.37,1.61-2.42,2.16-1.05.54-2.21.81-3.48.81ZM138.78,75.47c1.6,0,2.91-.58,3.92-1.73,1.06-1.15,1.59-2.66,1.59-4.53s-.53-3.31-1.59-4.49c-1.04-1.18-2.35-1.77-3.92-1.77s-2.86.59-3.92,1.77c-1.06,1.18-1.59,2.68-1.59,4.49s.53,3.34,1.59,4.49c1.06,1.18,2.37,1.77,3.92,1.77Z"/>
    <path class="st1" d="M166.88,78.44c-1.27,0-2.43-.27-3.48-.81-1.05-.54-1.86-1.26-2.42-2.16h-.14v2.4h-3.11v-25.32h3.25v7.99l-.14,2.4h.14c.57-.9,1.37-1.61,2.42-2.16,1.05-.54,2.21-.81,3.48-.81,2.29,0,4.22.9,5.8,2.69,1.63,1.82,2.44,4,2.44,6.54s-.81,4.75-2.44,6.54c-1.58,1.79-3.51,2.69-5.8,2.69ZM166.35,75.47c1.56,0,2.86-.59,3.92-1.77,1.06-1.15,1.59-2.65,1.59-4.49s-.53-3.31-1.59-4.49c-1.06-1.18-2.37-1.77-3.92-1.77s-2.9.59-3.96,1.77c-1.04,1.18-1.56,2.68-1.56,4.49s.52,3.35,1.56,4.53c1.06,1.15,2.38,1.73,3.96,1.73Z"/>
    <path class="st1" d="M192.16,60.55l-10.85,24.96h-3.36l4.03-8.73-7.14-16.23h3.54l5.16,12.45h.07l5.02-12.45h3.54Z"/>
  </g>
</svg>