<?xml version="1.0" encoding="UTF-8"?>
<svg id="Capa_1" xmlns="http://www.w3.org/2000/svg" xmlns:xlink="http://www.w3.org/1999/xlink" version="1.1" viewBox="0 0 452.54 139.89">
  <!-- Generator: Adobe Illustrator 30.1.0, SVG Export Plug-In . SVG Version: 2.1.1 Build 136)  -->
  <defs>
    <style>
      .st0 {
        fill: #ceddff;
      }

      .st1 {
        fill: url(#Degradado_sin_nombre_262);
      }

      .st2 {
        fill: #005bd6;
      }
    </style>
    <linearGradient id="Degradado_sin_nombre_262" data-name="Degradado sin nombre 262" x1="44.61" y1="73.34" x2="111.17" y2="73.34" gradientUnits="userSpaceOnUse">
      <stop offset="0" stop-color="#015ad6"/>
      <stop offset=".2" stop-color="#0061da"/>
      <stop offset=".5" stop-color="#0076e5"/>
      <stop offset=".87" stop-color="#0098f7"/>
      <stop offset="1" stop-color="#00a7ff"/>
    </linearGradient>
  </defs>
  <g>
    <path class="st2" d="M129.41,115.13V27.78h12.83v87.35h-12.83ZM135.89,84.68v-10.71h41.89c6.54,0,11.58-1.54,15.13-4.63,3.55-3.09,5.33-7.44,5.33-13.04v-.12c0-5.57-1.78-9.9-5.33-12.98-3.55-3.09-8.6-4.63-15.13-4.63h-41.89v-10.77h43.83c6.42,0,11.99,1.16,16.74,3.48,4.74,2.32,8.4,5.61,10.99,9.87,2.58,4.26,3.87,9.21,3.87,14.86v.12c0,5.73-1.3,10.74-3.9,15.04-2.6,4.3-6.28,7.63-11.02,9.99-4.74,2.36-10.3,3.54-16.68,3.54h-43.83Z"/>
    <path class="st2" d="M265.13,116.76c-10.57,0-19.77-1.86-27.6-5.57-7.83-3.71-13.9-8.96-18.22-15.74-4.32-6.78-6.48-14.77-6.48-23.97v-.12c0-9.2,2.16-17.18,6.48-23.94,4.32-6.76,10.39-11.99,18.22-15.71,7.83-3.71,17.03-5.57,27.6-5.57s19.72,1.86,27.57,5.57c7.85,3.71,13.94,8.95,18.28,15.71,4.34,6.76,6.51,14.74,6.51,23.94v.12c0,9.2-2.17,17.19-6.51,23.97-4.34,6.78-10.42,12.03-18.25,15.74-7.83,3.71-17.03,5.57-27.6,5.57ZM265.13,105.5c7.95,0,14.86-1.39,20.73-4.18,5.87-2.78,10.42-6.73,13.65-11.83,3.23-5.1,4.84-11.11,4.84-18.01v-.12c0-6.9-1.62-12.89-4.87-17.98-3.25-5.08-7.81-9.02-13.68-11.8-5.87-2.78-12.76-4.18-20.67-4.18s-14.8,1.39-20.67,4.18c-5.87,2.78-10.43,6.72-13.68,11.8-3.25,5.08-4.87,11.08-4.87,17.98v.12c0,6.9,1.62,12.9,4.87,18.01,3.25,5.11,7.81,9.05,13.68,11.83,5.87,2.78,12.76,4.18,20.67,4.18Z"/>
    <path class="st2" d="M364.96,116.76c-9.08,0-16.91-.98-23.49-2.94-6.58-1.96-11.74-4.81-15.5-8.57-3.75-3.75-5.97-8.31-6.66-13.68l-.12-.79h12.83l.18.73c.85,3.11,2.64,5.72,5.39,7.84,2.74,2.12,6.47,3.71,11.17,4.78,4.7,1.07,10.38,1.6,17.04,1.6,5.85,0,10.84-.58,14.98-1.76,4.14-1.17,7.29-2.88,9.47-5.15,2.18-2.26,3.27-4.96,3.27-8.11v-.06c0-4.03-1.58-7.06-4.75-9.08-3.17-2.02-8.61-3.43-16.31-4.24l-20.64-1.94c-10.33-1.09-17.98-3.57-22.94-7.45-4.96-3.87-7.45-9.24-7.45-16.1v-.12c0-5.21,1.63-9.72,4.9-13.53,3.27-3.81,7.89-6.78,13.86-8.9,5.97-2.12,13.03-3.18,21.19-3.18s15.88,1.01,22.09,3.03c6.21,2.02,11.13,4.93,14.74,8.75,3.61,3.81,5.8,8.42,6.57,13.83l.06.61h-12.83l-.18-.61c-1.01-3.31-2.74-6.03-5.21-8.17-2.46-2.14-5.79-3.74-9.99-4.81-4.2-1.07-9.34-1.6-15.44-1.6-5.69,0-10.53.57-14.53,1.69-4,1.13-7.03,2.75-9.11,4.87-2.08,2.12-3.12,4.67-3.12,7.66v.06c0,3.71,1.58,6.58,4.75,8.6,3.17,2.02,8.28,3.41,15.34,4.18l20.76,1.82c7.26.81,13.2,2.19,17.8,4.15,4.6,1.96,7.99,4.57,10.17,7.84,2.18,3.27,3.27,7.28,3.27,12.05v.06c0,5.61-1.63,10.4-4.9,14.38-3.27,3.98-7.98,7.01-14.13,9.11-6.15,2.1-13.67,3.15-22.55,3.15Z"/>
  </g>
  <path class="st0" d="M73.48,57.06h28.51c-.1-18.29-14.9-33.09-33.19-33.19h0s-33.37,0-33.37,0c.09,16.67,12.41,30.45,28.44,32.83h-28.44c.09,16.67,12.41,30.45,28.44,32.83h-28.44c.1,18.32,14.95,33.14,33.28,33.19v.09c18.2-.1,32.94-14.76,33.18-32.92h.03c-.09-16.67-12.41-30.45-28.44-32.83Z"/>
  <path class="st1" d="M82.66,57.06h28.51c-.1-18.29-14.9-33.09-33.19-33.19h0s-33.37,0-33.37,0c.09,16.67,12.41,30.45,28.44,32.83h-28.44c.09,16.67,12.41,30.45,28.44,32.83h-28.44c.1,18.32,14.95,33.14,33.28,33.19v.09c18.2-.1,32.94-14.76,33.18-32.92h.03c-.09-16.67-12.41-30.45-28.44-32.83Z"/>
</svg>