<?xml version="1.0" encoding="UTF-8"?>
<svg id="Capa_1" xmlns="http://www.w3.org/2000/svg" xmlns:xlink="http://www.w3.org/1999/xlink" version="1.1" viewBox="0 0 739.46 298.92">
  <!-- Generator: Adobe Illustrator 30.4.0, SVG Export Plug-In . SVG Version: 2.1.4 Build 226)  -->
  <defs>
    <style>
      .st0 {
        fill: #fff;
      }

      .st1 {
        fill: url(#Degradado_sin_nombre_262);
      }
    </style>
    <linearGradient id="Degradado_sin_nombre_262" data-name="Degradado sin nombre 262" x1="1.54" y1="152.16" x2="718.41" y2="152.16" gradientUnits="userSpaceOnUse">
      <stop offset="0" stop-color="#015ad6"/>
      <stop offset=".2" stop-color="#0061da"/>
      <stop offset=".5" stop-color="#0076e5"/>
      <stop offset=".87" stop-color="#0098f7"/>
      <stop offset="1" stop-color="#00a7ff"/>
    </linearGradient>
  </defs>
  <rect class="st1" x="1.54" y="13.34" width="716.87" height="277.65" rx="138.82" ry="138.82"/>
  <g>
    <path class="st0" d="M328.48,174.51c-2.95,5.72-7.08,10.4-12.39,14.05-5.31,3.64-11.93,5.47-19.86,5.47-5.26,0-10.08-.9-14.46-2.7-4.38-1.8-8.17-4.31-11.35-7.54-3.18-3.23-5.67-7.03-7.47-11.42-1.8-4.38-2.7-9.2-2.7-14.46s.9-10.1,2.7-14.53c1.8-4.43,4.29-8.23,7.47-11.42s6.96-5.67,11.35-7.47c4.38-1.8,9.2-2.7,14.46-2.7,7.84,0,14.44,1.8,19.79,5.4,5.35,3.6,9.27,8.26,11.76,13.98l-16.61,6.92c-1.57-3.14-3.58-5.51-6.02-7.13-2.45-1.61-5.51-2.42-9.2-2.42-2.4,0-4.66.46-6.78,1.38-2.12.92-3.99,2.21-5.61,3.88-1.62,1.66-2.88,3.69-3.81,6.09-.92,2.4-1.38,5.08-1.38,8.03s.46,5.63,1.38,8.03c.92,2.4,2.19,4.43,3.81,6.09,1.61,1.66,3.48,2.95,5.61,3.88,2.12.92,4.38,1.38,6.78,1.38,3.78,0,6.99-.85,9.62-2.56,2.63-1.71,4.73-4.17,6.3-7.4l16.61,7.2Z"/>
    <path class="st0" d="M333.32,124h17.02v9.41h1.11c.83-1.66,1.94-3.18,3.32-4.57s2.93-2.59,4.64-3.62c1.71-1.03,3.55-1.86,5.54-2.49,1.98-.63,3.94-.95,5.88-.95,2.4,0,4.45.26,6.16.77,1.71.51,3.16,1.18,4.36,2l-4.84,16.19c-1.11-.55-2.33-.99-3.67-1.32-1.34-.32-2.98-.48-4.91-.48-2.49,0-4.75.49-6.78,1.46-2.03.97-3.76,2.34-5.19,4.1-1.43,1.76-2.54,3.83-3.32,6.19-.79,2.37-1.18,4.94-1.18,7.72v33.39h-18.13v-67.82Z"/>
    <path class="st0" d="M431.03,182.96h-1.11c-2.12,3.41-4.98,6.11-8.58,8.1-3.6,1.98-7.71,2.98-12.32,2.98-8.58,0-14.97-2.63-19.17-7.89-4.2-5.26-6.3-12.27-6.3-21.04v-41.11h18.13v38.89c0,4.89,1.08,8.51,3.25,10.86,2.17,2.35,5.33,3.53,9.48,3.53,2.49,0,4.68-.53,6.57-1.59,1.89-1.06,3.51-2.49,4.84-4.29,1.34-1.8,2.35-3.92,3.04-6.37.69-2.44,1.04-5.05,1.04-7.82v-33.22h18.13v67.82h-17.02v-8.86Z"/>
    <path class="st0" d="M458.02,124h17.02v8.86h1.11c2.12-3.32,5-6,8.65-8.03,3.64-2.03,7.68-3.04,12.11-3.04,5.17,0,9.5,1.2,13.01,3.6,3.51,2.4,6,5.35,7.47,8.86,2.12-3.41,5.12-6.34,9-8.79,3.88-2.44,8.58-3.67,14.12-3.67,4.15,0,7.75.67,10.79,2.01,3.04,1.34,5.56,3.21,7.54,5.6,1.98,2.4,3.48,5.28,4.5,8.65,1.01,3.37,1.52,7.04,1.52,11v42.77h-18.13v-39.44c0-9.22-3.78-13.84-11.35-13.84-2.4,0-4.52.53-6.37,1.59-1.85,1.06-3.39,2.49-4.64,4.29-1.25,1.8-2.21,3.94-2.91,6.44-.69,2.49-1.04,5.17-1.04,8.03v32.94h-18.13v-39.44c0-9.22-3.97-13.84-11.9-13.84-2.31,0-4.34.53-6.09,1.59-1.75,1.06-3.23,2.49-4.43,4.29-1.2,1.8-2.12,3.94-2.77,6.44-.65,2.49-.97,5.17-.97,8.03v32.94h-18.13v-67.82Z"/>
    <path class="st0" d="M574.27,92.72h18.13v29.76l-1.11,9.69h1.11c1.66-2.86,4.24-5.3,7.75-7.33,3.51-2.03,7.84-3.04,13.01-3.04,4.34,0,8.46.9,12.39,2.7,3.92,1.8,7.38,4.29,10.38,7.47,3,3.18,5.37,6.99,7.13,11.42,1.75,4.43,2.63,9.27,2.63,14.53s-.88,10.1-2.63,14.53c-1.75,4.43-4.13,8.23-7.13,11.42-3,3.18-6.46,5.67-10.38,7.47-3.92,1.8-8.05,2.7-12.39,2.7-5.17,0-9.5-1.02-13.01-3.04-3.51-2.03-6.09-4.47-7.75-7.34h-1.11v8.17h-17.02v-99.09ZM609.43,177.28c2.4,0,4.68-.46,6.85-1.38,2.17-.92,4.08-2.21,5.74-3.88s3-3.69,4.01-6.09c1.01-2.4,1.52-5.07,1.52-8.03s-.51-5.63-1.52-8.03c-1.02-2.4-2.35-4.43-4.01-6.09-1.66-1.66-3.58-2.95-5.74-3.88-2.17-.92-4.45-1.38-6.85-1.38s-4.68.44-6.85,1.31c-2.17.88-4.08,2.15-5.74,3.81-1.66,1.66-3,3.69-4.01,6.09-1.02,2.4-1.52,5.12-1.52,8.17s.51,5.77,1.52,8.17c1.01,2.4,2.35,4.43,4.01,6.09,1.66,1.66,3.57,2.93,5.74,3.81,2.17.88,4.45,1.31,6.85,1.31Z"/>
  </g>
  <g>
    <g>
      <circle class="st0" cx="200.59" cy="120.95" r="10.51"/>
      <circle class="st0" cx="230.51" cy="152.16" r="10.51"/>
      <circle class="st0" cx="200.59" cy="181.78" r="10.51"/>
    </g>
    <path class="st0" d="M178.03,209.01c-8.84-5.83-14.68-15.85-14.68-27.23,0-9.41,3.99-17.89,10.37-23.83,3.85-3.59,3.85-9.57,0-13.16-6.38-5.95-10.37-14.42-10.37-23.83,0-10.95,5.4-20.64,13.69-26.55,5.2-3.71,4.99-11.49-.45-14.82-13.3-8.15-29.01-12.75-45.81-12.47-44.41.73-81.17,36.09-83.51,80.45-2.59,49.08,36.44,89.68,84.95,89.68,16.81,0,32.47-4.88,45.66-13.3,5.44-3.47,5.55-11.37.15-14.92ZM99.62,161.07c-5.8,0-10.51-4.7-10.51-10.51s4.7-10.51,10.51-10.51,10.51,4.7,10.51,10.51-4.7,10.51-10.51,10.51ZM129.54,192.29c-5.8,0-10.51-4.7-10.51-10.51s4.7-10.51,10.51-10.51,10.51,4.7,10.51,10.51-4.7,10.51-10.51,10.51ZM129.54,131.46c-5.8,0-10.51-4.7-10.51-10.51s4.7-10.51,10.51-10.51,10.51,4.7,10.51,10.51-4.7,10.51-10.51,10.51Z"/>
  </g>
</svg>