<?xml version="1.0" encoding="UTF-8"?>
<svg id="Capa_1" xmlns="http://www.w3.org/2000/svg" version="1.1" viewBox="0 0 289.99 67.36">
  <!-- Generator: Adobe Illustrator 30.1.0, SVG Export Plug-In . SVG Version: 2.1.1 Build 136)  -->
  <defs>
    <style>
      .st0 {
        fill: #f4f4f4;
      }

      .st1 {
        fill: #fff;
      }

      .st2 {
        fill: #f20f63;
      }

      .st3 {
        fill: #f40d63;
      }

      .st4 {
        fill: #f67ca9;
      }

      .st5 {
        fill: #fdebf6;
      }
    </style>
  </defs>
  <rect width="289.99" height="67.36" rx="13.96" ry="13.96"/>
  <g>
    <g>
      <path class="st1" d="M59.16,44.33c-1.33,0-2.43-.41-3.31-1.23-.88-.82-1.33-1.96-1.35-3.43v-9.11h-2.86v-2.79h2.86v-4.99h3.06v4.99h3.99v2.79h-3.99v8.12c0,1.09.21,1.82.63,2.21.42.39.9.58,1.43.58.24,0,.48-.03.72-.08.23-.06.45-.13.65-.22l.96,2.73c-.8.29-1.73.43-2.79.43Z"/>
      <path class="st1" d="M66.22,44.06h-3.06v-16.3h2.93v2.66h.13c.31-.86.95-1.6,1.91-2.21.96-.61,1.91-.91,2.84-.91s1.64.13,2.26.4l-.93,2.96c-.38-.16-.98-.23-1.8-.23-1.15,0-2.16.47-3.01,1.4-.85.93-1.28,2.02-1.28,3.26v8.98Z"/>
      <path class="st1" d="M80.22,44.59c-2.39,0-4.37-.82-5.92-2.46-1.55-1.64-2.33-3.71-2.33-6.22s.75-4.55,2.26-6.2c1.51-1.65,3.44-2.48,5.79-2.48s4.34.78,5.77,2.35,2.15,3.75,2.15,6.57l-.03.33h-12.81c.04,1.6.58,2.88,1.6,3.86,1.02.98,2.24,1.46,3.66,1.46,1.95,0,3.48-.98,4.59-2.93l2.73,1.33c-.73,1.37-1.75,2.45-3.04,3.23-1.3.78-2.77,1.16-4.41,1.16ZM75.33,33.95h9.35c-.09-1.13-.55-2.07-1.38-2.81-.83-.74-1.95-1.11-3.34-1.11-1.15,0-2.15.35-2.98,1.06-.83.71-1.38,1.66-1.65,2.86Z"/>
      <path class="st1" d="M102.04,39.54c0,1.42-.62,2.62-1.86,3.59s-2.81,1.46-4.69,1.46c-1.64,0-3.08-.43-4.32-1.28-1.24-.85-2.13-1.98-2.66-3.38l2.73-1.16c.4.98.98,1.74,1.75,2.28.77.54,1.6.81,2.51.81.98,0,1.79-.21,2.45-.63.65-.42.98-.92.98-1.5,0-1.04-.8-1.81-2.39-2.3l-2.79-.7c-3.17-.8-4.76-2.33-4.76-4.59,0-1.49.6-2.68,1.81-3.58s2.76-1.35,4.64-1.35c1.44,0,2.74.34,3.91,1.03,1.16.69,1.98,1.61,2.45,2.76l-2.73,1.13c-.31-.69-.82-1.23-1.51-1.61-.7-.39-1.48-.58-2.35-.58-.8,0-1.51.2-2.15.6-.63.4-.95.89-.95,1.46,0,.93.88,1.6,2.63,2l2.46.63c3.24.8,4.86,2.43,4.86,4.89Z"/>
    </g>
    <g>
      <path class="st1" d="M109.17,44.33c-1.33,0-2.43-.41-3.31-1.23-.88-.82-1.33-1.96-1.35-3.43v-9.11h-2.86v-2.79h2.86v-4.99h3.06v4.99h3.99v2.79h-3.99v8.12c0,1.09.21,1.82.63,2.21.42.39.9.58,1.43.58.24,0,.48-.03.72-.08.23-.06.45-.13.65-.22l.96,2.73c-.8.29-1.73.43-2.79.43Z"/>
      <path class="st1" d="M116.22,44.06h-3.06v-16.3h2.93v2.66h.13c.31-.86.95-1.6,1.91-2.21.96-.61,1.91-.91,2.84-.91s1.64.13,2.26.4l-.93,2.96c-.38-.16-.98-.23-1.8-.23-1.15,0-2.16.47-3.01,1.4-.85.93-1.28,2.02-1.28,3.26v8.98Z"/>
      <path class="st1" d="M130.23,44.59c-2.39,0-4.37-.82-5.92-2.46-1.55-1.64-2.33-3.71-2.33-6.22s.75-4.55,2.26-6.2c1.51-1.65,3.44-2.48,5.79-2.48s4.34.78,5.77,2.35,2.15,3.75,2.15,6.57l-.03.33h-12.81c.04,1.6.58,2.88,1.6,3.86,1.02.98,2.24,1.46,3.66,1.46,1.95,0,3.48-.98,4.59-2.93l2.73,1.33c-.73,1.37-1.75,2.45-3.04,3.23-1.3.78-2.77,1.16-4.41,1.16ZM125.34,33.95h9.35c-.09-1.13-.55-2.07-1.38-2.81-.83-.74-1.95-1.11-3.34-1.11-1.15,0-2.15.35-2.98,1.06-.83.71-1.38,1.66-1.65,2.86Z"/>
      <path class="st1" d="M152.05,39.54c0,1.42-.62,2.62-1.86,3.59s-2.81,1.46-4.69,1.46c-1.64,0-3.08-.43-4.32-1.28-1.24-.85-2.13-1.98-2.66-3.38l2.73-1.16c.4.98.98,1.74,1.75,2.28.77.54,1.6.81,2.51.81.98,0,1.79-.21,2.45-.63.65-.42.98-.92.98-1.5,0-1.04-.8-1.81-2.39-2.3l-2.79-.7c-3.17-.8-4.76-2.33-4.76-4.59,0-1.49.6-2.68,1.81-3.58s2.76-1.35,4.64-1.35c1.44,0,2.74.34,3.91,1.03,1.16.69,1.98,1.61,2.45,2.76l-2.73,1.13c-.31-.69-.82-1.23-1.51-1.61-.7-.39-1.48-.58-2.35-.58-.8,0-1.51.2-2.15.6-.63.4-.95.89-.95,1.46,0,.93.88,1.6,2.63,2l2.46.63c3.24.8,4.86,2.43,4.86,4.89Z"/>
    </g>
  </g>
  <rect class="st0" x="161.22" y="12.27" width="118.86" height="41.93" rx="8.68" ry="8.68" transform="translate(441.3 66.46) rotate(180)"/>
  <g>
    <circle class="st2" cx="32.92" cy="33.68" r="14.95"/>
    <circle class="st4" cx="26.58" cy="33.68" r="13.66"/>
    <circle class="st5" cx="20.99" cy="33.68" r="11.76"/>
  </g>
  <g>
    <path class="st3" d="M179.4,47.72v-26.56h5.06v26.56h-5.06ZM181.93,38.96v-3.92h12.31c1.83,0,3.24-.43,4.23-1.29.99-.86,1.49-2.07,1.49-3.64v-.04c0-1.57-.5-2.79-1.49-3.64-.99-.86-2.41-1.29-4.23-1.29h-12.31v-3.98h13.12c2.05,0,3.83.37,5.34,1.09,1.51.73,2.68,1.76,3.5,3.09.82,1.33,1.23,2.88,1.23,4.65v.04c0,1.79-.41,3.35-1.24,4.68-.83,1.33-1.99,2.37-3.5,3.12-1.5.75-3.28,1.12-5.33,1.12h-13.12Z"/>
    <path class="st3" d="M221.65,48.22c-3.28,0-6.13-.56-8.55-1.68-2.42-1.12-4.3-2.72-5.63-4.79-1.33-2.07-2-4.5-2-7.3v-.04c0-2.8.67-5.23,2-7.29,1.33-2.06,3.21-3.65,5.63-4.78,2.42-1.12,5.27-1.68,8.55-1.68s6.09.56,8.52,1.69,4.31,2.72,5.65,4.78c1.34,2.06,2.01,4.48,2.01,7.28v.04c0,2.8-.67,5.23-2.01,7.29-1.34,2.06-3.22,3.66-5.64,4.79-2.42,1.13-5.27,1.69-8.53,1.69ZM221.65,44.02c2.22,0,4.16-.39,5.81-1.17s2.93-1.89,3.83-3.32c.9-1.44,1.35-3.13,1.35-5.08v-.04c0-1.95-.45-3.64-1.36-5.07s-2.19-2.53-3.84-3.31-3.58-1.17-5.79-1.17-4.17.39-5.82,1.17-2.92,1.88-3.84,3.31c-.92,1.43-1.37,3.12-1.37,5.07v.04c0,1.95.46,3.64,1.37,5.08.91,1.44,2.19,2.54,3.84,3.32s3.58,1.17,5.82,1.17Z"/>
    <path class="st3" d="M251.03,48.22c-2.83,0-5.28-.3-7.33-.91-2.05-.61-3.66-1.5-4.84-2.68s-1.88-2.6-2.1-4.27l-.04-.24h5.01l.04.2c.23.85.74,1.56,1.51,2.15.77.59,1.83,1.03,3.16,1.33,1.33.29,2.94.44,4.81.44,1.64,0,3.04-.16,4.2-.47,1.15-.31,2.03-.78,2.64-1.4.61-.62.91-1.35.91-2.18v-.02c0-1.09-.43-1.91-1.29-2.45-.86-.54-2.35-.92-4.47-1.14l-6.39-.55c-3.2-.33-5.58-1.1-7.13-2.31-1.55-1.21-2.33-2.88-2.33-5.02v-.04c0-1.64.51-3.06,1.54-4.25s2.48-2.11,4.36-2.77c1.88-.66,4.11-.98,6.69-.98s4.96.31,6.9.93c1.94.62,3.47,1.52,4.59,2.7,1.12,1.18,1.81,2.6,2.05,4.27l.02.2h-4.97l-.06-.17c-.26-.88-.74-1.62-1.44-2.2-.7-.58-1.64-1.02-2.82-1.32-1.18-.29-2.61-.44-4.31-.44-1.6,0-2.95.15-4.07.45-1.12.3-1.96.74-2.54,1.31-.58.57-.87,1.26-.87,2.07v.02c0,1.01.44,1.78,1.32,2.31.88.53,2.3.91,4.28,1.13l6.44.53c2.21.25,4.02.67,5.42,1.27,1.41.6,2.45,1.41,3.14,2.42.69,1.01,1.03,2.25,1.03,3.71v.02c0,1.75-.52,3.25-1.55,4.49-1.03,1.24-2.52,2.19-4.46,2.85-1.95.66-4.3.99-7.08.99Z"/>
  </g>
</svg>