<?xml version="1.0" encoding="UTF-8"?>
<svg id="Capa_1" xmlns="http://www.w3.org/2000/svg" version="1.1" viewBox="0 0 685.12 156.7">
  <!-- Generator: Adobe Illustrator 30.4.0, SVG Export Plug-In . SVG Version: 2.1.4 Build 226)  -->
  <defs>
    <style>
      .st0 {
        fill: #bebebe;
      }
    </style>
  </defs>
  <text/>
  <text/>
  <text/>
  <g>
    <g>
      <path class="st0" d="M255.81,123.7c-2.95,5.72-7.08,10.4-12.39,14.05-5.31,3.64-11.93,5.47-19.86,5.47-5.26,0-10.08-.9-14.46-2.7-4.38-1.8-8.17-4.31-11.35-7.54-3.18-3.23-5.67-7.03-7.47-11.42-1.8-4.38-2.7-9.2-2.7-14.46s.9-10.1,2.7-14.53c1.8-4.43,4.29-8.23,7.47-11.42s6.96-5.67,11.35-7.47c4.38-1.8,9.2-2.7,14.46-2.7,7.84,0,14.44,1.8,19.79,5.4,5.35,3.6,9.27,8.26,11.76,13.98l-16.61,6.92c-1.57-3.14-3.58-5.51-6.02-7.13-2.45-1.61-5.51-2.42-9.2-2.42-2.4,0-4.66.46-6.78,1.38-2.12.92-3.99,2.21-5.61,3.88-1.62,1.66-2.88,3.69-3.81,6.09-.92,2.4-1.38,5.08-1.38,8.03s.46,5.63,1.38,8.03c.92,2.4,2.19,4.43,3.81,6.09,1.61,1.66,3.48,2.95,5.61,3.88,2.12.92,4.38,1.38,6.78,1.38,3.78,0,6.99-.85,9.62-2.56,2.63-1.71,4.73-4.17,6.3-7.4l16.61,7.2Z"/>
      <path class="st0" d="M260.65,73.18h17.02v9.41h1.11c.83-1.66,1.94-3.18,3.32-4.57s2.93-2.59,4.64-3.62c1.71-1.03,3.55-1.86,5.54-2.49,1.98-.63,3.94-.95,5.88-.95,2.4,0,4.45.26,6.16.77,1.71.51,3.16,1.18,4.36,2l-4.84,16.19c-1.11-.55-2.33-.99-3.67-1.32-1.34-.32-2.98-.48-4.91-.48-2.49,0-4.75.49-6.78,1.46-2.03.97-3.76,2.34-5.19,4.1-1.43,1.76-2.54,3.83-3.32,6.19-.79,2.37-1.18,4.94-1.18,7.72v33.39h-18.13v-67.82Z"/>
      <path class="st0" d="M358.36,132.14h-1.11c-2.12,3.41-4.98,6.11-8.58,8.1-3.6,1.98-7.71,2.98-12.32,2.98-8.58,0-14.97-2.63-19.17-7.89-4.2-5.26-6.3-12.27-6.3-21.04v-41.11h18.13v38.89c0,4.89,1.08,8.51,3.25,10.86,2.17,2.35,5.33,3.53,9.48,3.53,2.49,0,4.68-.53,6.57-1.59,1.89-1.06,3.51-2.49,4.84-4.29,1.34-1.8,2.35-3.92,3.04-6.37.69-2.44,1.04-5.05,1.04-7.82v-33.22h18.13v67.82h-17.02v-8.86Z"/>
      <path class="st0" d="M385.35,73.18h17.02v8.86h1.11c2.12-3.32,5-6,8.65-8.03,3.64-2.03,7.68-3.04,12.11-3.04,5.17,0,9.5,1.2,13.01,3.6,3.51,2.4,6,5.35,7.47,8.86,2.12-3.41,5.12-6.34,9-8.79,3.88-2.44,8.58-3.67,14.12-3.67,4.15,0,7.75.67,10.79,2.01,3.04,1.34,5.56,3.21,7.54,5.6,1.98,2.4,3.48,5.28,4.5,8.65,1.01,3.37,1.52,7.04,1.52,11v42.77h-18.13v-39.44c0-9.22-3.78-13.84-11.35-13.84-2.4,0-4.52.53-6.37,1.59-1.85,1.06-3.39,2.49-4.64,4.29-1.25,1.8-2.21,3.94-2.91,6.44-.69,2.49-1.04,5.17-1.04,8.03v32.94h-18.13v-39.44c0-9.22-3.97-13.84-11.9-13.84-2.31,0-4.34.53-6.09,1.59-1.75,1.06-3.23,2.49-4.43,4.29-1.2,1.8-2.12,3.94-2.77,6.44-.65,2.49-.97,5.17-.97,8.03v32.94h-18.13v-67.82Z"/>
      <path class="st0" d="M501.6,41.91h18.13v29.76l-1.11,9.69h1.11c1.66-2.86,4.24-5.3,7.75-7.33,3.51-2.03,7.84-3.04,13.01-3.04,4.34,0,8.46.9,12.39,2.7,3.92,1.8,7.38,4.29,10.38,7.47,3,3.18,5.37,6.99,7.13,11.42,1.75,4.43,2.63,9.27,2.63,14.53s-.88,10.1-2.63,14.53c-1.75,4.43-4.13,8.23-7.13,11.42-3,3.18-6.46,5.67-10.38,7.47-3.92,1.8-8.05,2.7-12.39,2.7-5.17,0-9.5-1.02-13.01-3.04-3.51-2.03-6.09-4.47-7.75-7.34h-1.11v8.17h-17.02V41.91ZM536.76,126.47c2.4,0,4.68-.46,6.85-1.38,2.17-.92,4.08-2.21,5.74-3.88s3-3.69,4.01-6.09c1.01-2.4,1.52-5.07,1.52-8.03s-.51-5.63-1.52-8.03c-1.02-2.4-2.35-4.43-4.01-6.09-1.66-1.66-3.58-2.95-5.74-3.88-2.17-.92-4.45-1.38-6.85-1.38s-4.68.44-6.85,1.31c-2.17.88-4.08,2.15-5.74,3.81-1.66,1.66-3,3.69-4.01,6.09-1.02,2.4-1.52,5.12-1.52,8.17s.51,5.77,1.52,8.17c1.01,2.4,2.35,4.43,4.01,6.09,1.66,1.66,3.57,2.93,5.74,3.81,2.17.88,4.45,1.31,6.85,1.31Z"/>
      <path class="st0" d="M596.82,132.42c0,2.58-.9,4.8-2.7,6.64-1.8,1.85-4.04,2.77-6.71,2.77s-4.8-.92-6.64-2.77c-1.85-1.84-2.77-4.06-2.77-6.64s.92-4.91,2.77-6.71c1.84-1.8,4.06-2.7,6.64-2.7s4.91.9,6.71,2.7c1.8,1.8,2.7,4.04,2.7,6.71Z"/>
      <path class="st0" d="M636.68,143.21c-10.06,0-18.41-3.41-25.05-10.24-6.55-7.01-9.83-15.64-9.83-25.88s3.27-19.05,9.83-25.88c6.64-6.83,14.99-10.24,25.05-10.24,6.92,0,12.96,1.73,18.13,5.19,5.17,3.46,9.04,8.24,11.62,14.33l-11.62,4.84c-3.6-8.49-9.92-12.73-18.96-12.73-5.81,0-10.84,2.35-15.09,7.06-4.15,4.71-6.23,10.52-6.23,17.44s2.08,12.73,6.23,17.44c4.24,4.71,9.27,7.06,15.09,7.06,9.32,0,15.87-4.24,19.65-12.73l11.35,4.84c-2.49,6.09-6.39,10.86-11.69,14.32-5.31,3.46-11.47,5.19-18.48,5.19Z"/>
      <path class="st0" d="M685.12,41.91v99.09h-12.73V41.91h12.73Z"/>
    </g>
    <g>
      <path class="st0" d="M203.67,36.19v16.12h-5.12V12.5h13.57c3.45,0,6.38,1.15,8.79,3.45,2.45,2.3,3.67,5.1,3.67,8.4s-1.22,6.19-3.67,8.45c-2.37,2.26-5.3,3.39-8.79,3.39h-8.45ZM203.67,17.39v13.9h8.56c2.04,0,3.72-.69,5.06-2.06,1.37-1.37,2.06-3,2.06-4.89s-.69-3.47-2.06-4.84c-1.33-1.41-3.02-2.11-5.06-2.11h-8.56Z"/>
      <path class="st0" d="M224.41,38.69c0-4.19,1.32-7.65,3.95-10.4,2.67-2.74,6.02-4.12,10.06-4.12s7.38,1.37,10.01,4.12c2.67,2.74,4,6.21,4,10.4s-1.33,7.69-4,10.4c-2.63,2.74-5.97,4.11-10.01,4.11s-7.39-1.37-10.06-4.11c-2.63-2.74-3.95-6.21-3.95-10.4ZM229.52,38.69c0,2.93.85,5.3,2.56,7.12,1.71,1.82,3.82,2.72,6.34,2.72s4.63-.91,6.34-2.72c1.7-1.82,2.56-4.19,2.56-7.12s-.85-5.25-2.56-7.06c-1.74-1.85-3.86-2.78-6.34-2.78s-4.6.93-6.34,2.78c-1.71,1.82-2.56,4.17-2.56,7.06Z"/>
      <path class="st0" d="M294.02,25.07l-8.79,27.25h-5.23l-6.78-20.91-6.73,20.91h-5.17l-8.79-27.25h5.34l6.06,20.57h.06l6.73-20.57h5.28l6.73,20.57h.06l6-20.57h5.23Z"/>
      <path class="st0" d="M307.92,53.2c-4,0-7.3-1.37-9.9-4.11-2.6-2.74-3.89-6.21-3.89-10.4s1.26-7.61,3.78-10.37c2.52-2.76,5.75-4.14,9.67-4.14s7.26,1.31,9.65,3.92,3.59,6.27,3.59,10.98l-.06.56h-21.41c.07,2.67.96,4.82,2.67,6.45,1.71,1.63,3.74,2.45,6.12,2.45,3.26,0,5.82-1.63,7.67-4.89l4.56,2.22c-1.22,2.3-2.92,4.1-5.09,5.39-2.17,1.3-4.62,1.95-7.37,1.95ZM299.75,35.41h15.62c-.15-1.89-.92-3.46-2.31-4.7-1.39-1.24-3.25-1.86-5.59-1.86-1.93,0-3.59.59-4.98,1.78-1.39,1.19-2.31,2.78-2.75,4.78Z"/>
      <path class="st0" d="M329.5,52.31h-5.12v-27.25h4.89v4.45h.22c.52-1.45,1.58-2.68,3.2-3.7s3.2-1.53,4.75-1.53,2.74.22,3.78.67l-1.56,4.95c-.63-.26-1.63-.39-3-.39-1.93,0-3.61.78-5.03,2.34-1.43,1.56-2.14,3.37-2.14,5.45v15.01Z"/>
      <path class="st0" d="M354.01,53.2c-4,0-7.3-1.37-9.9-4.11-2.6-2.74-3.89-6.21-3.89-10.4s1.26-7.61,3.78-10.37c2.52-2.76,5.75-4.14,9.67-4.14s7.26,1.31,9.65,3.92,3.59,6.27,3.59,10.98l-.06.56h-21.41c.07,2.67.96,4.82,2.67,6.45,1.71,1.63,3.74,2.45,6.12,2.45,3.26,0,5.82-1.63,7.67-4.89l4.56,2.22c-1.22,2.3-2.92,4.1-5.09,5.39-2.17,1.3-4.62,1.95-7.37,1.95ZM345.84,35.41h15.62c-.15-1.89-.92-3.46-2.31-4.7-1.39-1.24-3.25-1.86-5.59-1.86-1.93,0-3.59.59-4.98,1.78-1.39,1.19-2.31,2.78-2.75,4.78Z"/>
      <path class="st0" d="M382.15,53.2c-3.56,0-6.62-1.41-9.17-4.23-2.52-2.85-3.78-6.28-3.78-10.29s1.26-7.43,3.78-10.29c2.56-2.82,5.62-4.23,9.17-4.23,2,0,3.83.43,5.48,1.28,1.65.85,2.92,1.98,3.81,3.39h.22l-.22-3.78v-12.57h5.12v39.81h-4.89v-3.78h-.22c-.89,1.41-2.16,2.54-3.81,3.39-1.65.85-3.48,1.28-5.48,1.28ZM382.98,48.53c2.52,0,4.58-.91,6.17-2.72,1.67-1.82,2.5-4.19,2.5-7.12s-.83-5.21-2.5-7.06c-1.63-1.85-3.69-2.78-6.17-2.78s-4.5.93-6.17,2.78c-1.67,1.85-2.5,4.21-2.5,7.06s.83,5.25,2.5,7.06c1.67,1.85,3.73,2.78,6.17,2.78Z"/>
      <path class="st0" d="M427.18,53.2c-2,0-3.83-.43-5.48-1.28-1.65-.85-2.92-1.98-3.81-3.39h-.22v3.78h-4.89V12.5h5.12v12.57l-.22,3.78h.22c.89-1.41,2.16-2.54,3.81-3.39,1.65-.85,3.47-1.28,5.48-1.28,3.59,0,6.63,1.41,9.12,4.23,2.56,2.85,3.84,6.28,3.84,10.29s-1.28,7.47-3.84,10.29c-2.48,2.82-5.52,4.23-9.12,4.23ZM426.35,48.53c2.45,0,4.5-.93,6.17-2.78,1.67-1.82,2.5-4.17,2.5-7.06s-.83-5.21-2.5-7.06-3.73-2.78-6.17-2.78-4.56.93-6.23,2.78c-1.63,1.85-2.45,4.21-2.45,7.06s.81,5.26,2.45,7.12c1.67,1.82,3.74,2.72,6.23,2.72Z"/>
      <path class="st0" d="M466.94,25.07l-17.07,39.25h-5.28l6.34-13.73-11.23-25.52h5.56l8.12,19.57h.11l7.9-19.57h5.56Z"/>
    </g>
    <g>
      <g>
        <circle class="st0" cx="141.32" cy="49.6" r="9.68"/>
        <circle class="st0" cx="168.88" cy="78.35" r="9.68"/>
        <circle class="st0" cx="141.32" cy="105.63" r="9.68"/>
      </g>
      <path class="st0" d="M120.54,130.71c-8.14-5.37-13.52-14.59-13.52-25.08,0-8.67,3.67-16.47,9.55-21.95,3.55-3.31,3.55-8.82,0-12.12-5.88-5.48-9.55-13.28-9.55-21.95,0-10.09,4.98-19.01,12.61-24.46,4.79-3.41,4.6-10.58-.41-13.65C106.97,3.99,92.5-.25,77.02.01,36.12.69,2.27,33.25.11,74.1c-2.38,45.2,33.56,82.6,78.24,82.6,15.48,0,29.9-4.5,42.05-12.25,5.01-3.2,5.11-10.47.14-13.74ZM48.33,86.56c-5.34,0-9.68-4.33-9.68-9.68s4.33-9.68,9.68-9.68,9.68,4.33,9.68,9.68-4.33,9.68-9.68,9.68ZM75.88,115.3c-5.34,0-9.68-4.33-9.68-9.68s4.33-9.68,9.68-9.68,9.68,4.33,9.68,9.68-4.33,9.68-9.68,9.68ZM75.88,59.28c-5.34,0-9.68-4.33-9.68-9.68s4.33-9.68,9.68-9.68,9.68,4.33,9.68,9.68-4.33,9.68-9.68,9.68Z"/>
    </g>
  </g>
</svg>